PathFileType	4	(X/Y/Z)	Kaydara	
DataRate	CameraRate	NumFrames	NumMarkers	Units	OrigDataRate	OrigDataStartFrame	OrigNumFrames	
60.00	60.00	4	74	mm	60.00	368	98	
Frame#	Time	Y_rasi			Y_rpsi			Y_lpsi			Y_fneck			Y_bneck			Y_fhead			Y_rhead			Y_rshld			Y_relbtop			Y_relbext			Y_relblow			Y_rwrext			Y_rwrtop			Y_rwrlow			Y_lshld			Y_lelbext			Y_lelblow			Y_lelbtop			Y_lwrext			Y_lwrtop			Y_lwrlow			Y_rtopleg			Y_ltopleg			Y_rkneefr			Y_rkneebk			Y_rkneeis			Y_lkneefr			Y_lknssbk			Y_lkneeis			Y_rankfr			Y_rankis			Y_rankbk			Y_lankfr			Y_lankbk			Y_lankis			Y_lhead			Y_lasi			D_rpsi			D_lpsi			D_fneck			D_bneck			D_fhead			D_rhead			D_lhead			D_rshld			D_relbtop			D_relbext			D_relblow			D_rwrext			D_rwrtop			D_rwrlow			D_lshld			D_lelbext			D_lelblow			D_lelbtop			D_lwrext			D_lwrtop			D_lwrlow			D_rtopleg			D_ltopleg			D_rkneefr			D_rkneebk			D_rkneeis			D_lkneefr			D_lknssbk			D_lkneeis			D_rankfr			D_rankis			D_rankbk			D_lankfr			D_lankbk			D_lankis			D_lasi			D_rasi			
		X1	Y1	Z1	X2	Y2	Z2	X3	Y3	Z3	X4	Y4	Z4	X5	Y5	Z5	X6	Y6	Z6	X7	Y7	Z7	X8	Y8	Z8	X9	Y9	Z9	X10	Y10	Z10	X11	Y11	Z11	X12	Y12	Z12	X13	Y13	Z13	X14	Y14	Z14	X15	Y15	Z15	X16	Y16	Z16	X17	Y17	Z17	X18	Y18	Z18	X19	Y19	Z19	X20	Y20	Z20	X21	Y21	Z21	X22	Y22	Z22	X23	Y23	Z23	X24	Y24	Z24	X25	Y25	Z25	X26	Y26	Z26	X27	Y27	Z27	X28	Y28	Z28	X29	Y29	Z29	X30	Y30	Z30	X31	Y31	Z31	X32	Y32	Z32	X33	Y33	Z33	X34	Y34	Z34	X35	Y35	Z35	X36	Y36	Z36	X37	Y37	Z37	X38	Y38	Z38	X39	Y39	Z39	X40	Y40	Z40	X41	Y41	Z41	X42	Y42	Z42	X43	Y43	Z43	X44	Y44	Z44	X45	Y45	Z45	X46	Y46	Z46	X47	Y47	Z47	X48	Y48	Z48	X49	Y49	Z49	X50	Y50	Z50	X51	Y51	Z51	X52	Y52	Z52	X53	Y53	Z53	X54	Y54	Z54	X55	Y55	Z55	X56	Y56	Z56	X57	Y57	Z57	X58	Y58	Z58	X59	Y59	Z59	X60	Y60	Z60	X61	Y61	Z61	X62	Y62	Z62	X63	Y63	Z63	X64	Y64	Z64	X65	Y65	Z65	X66	Y66	Z66	X67	Y67	Z67	X68	Y68	Z68	X69	Y69	Z69	X70	Y70	Z70	X71	Y71	Z71	X72	Y72	Z72	X73	Y73	Z73	X74	Y74	Z74	

1	6.117	-582.93720	1091.41602	-131.66989	-563.40523	1071.14243	-315.72256	-341.53904	1057.90504	-222.01281	-490.50930	1433.35419	-154.69691	-406.73630	1481.84769	-233.48866	-535.66143	1634.77203	-89.28854	-499.97658	1575.00458	-254.92123	-626.92726	1424.98505	-264.66961	-671.42632	1132.67418	-243.34801	-714.32053	1126.78238	-286.75638	-664.67995	1098.62648	-328.43964	-605.55275	1001.01662	-66.50787	-641.79794	1021.74652	-52.83032	-630.42633	1063.89282	-47.87013	-285.68680	1391.13434	-90.98530	-265.35654	1074.30405	-34.58878	-288.54080	1057.85294	-87.98325	-329.09168	1117.52090	-30.13803	-523.94325	972.35779	-0.89372	-511.97182	1027.09389	37.05741	-534.66602	1036.68373	-22.80315	-641.35139	916.66466	-275.13294	-316.79037	904.13559	-109.06462	-647.63962	412.04063	-277.58652	-624.17809	458.30853	-351.42006	-554.17675	419.82162	-263.47162	-351.54316	474.84150	-100.88031	-286.50513	497.53895	-193.58704	-407.80472	468.36529	-180.40134	-634.19884	142.12366	-328.27888	-561.59443	136.43629	-340.18532	-603.50018	137.99431	-393.41999	-278.85244	131.69665	-166.59428	-263.12389	133.39752	-235.46688	-335.45467	126.12728	-204.06200	-381.84490	1565.70724	-150.77481	-432.93224	1078.37502	-69.49772	-897.20840	1169.81308	645.50888	-1051.52748	1189.49074	556.83372	-860.24536	1602.32346	508.39455	-938.95630	1654.08142	590.69263	-826.33453	1790.78964	382.25838	-841.39290	1798.26660	561.08326	-971.76102	1792.79739	479.71878	-752.09244	1551.54587	626.83960	-732.89169	1182.07718	578.29712	-671.06339	1192.95898	603.42785	-722.04163	1173.52051	661.70784	-657.37358	909.80629	513.40527	-645.09811	926.49117	476.86211	-685.85640	937.48459	452.96394	-1102.50710	1566.58722	473.87123	-1126.91628	1195.99411	397.69642	-1104.20639	1171.21559	467.20413	-1063.05763	1204.69925	399.66198	-1049.46228	956.75400	343.82469	-1028.59642	979.89098	310.32812	-988.41270	983.36555	334.84230	-786.53946	1029.28650	620.72956	-1087.06711	1030.86411	432.33944	-800.33119	558.42712	499.98432	-800.14557	556.14502	611.96888	-907.99896	547.63020	547.12322	-968.29948	485.11185	283.66373	-1050.90332	527.85164	347.07771	-961.23978	503.60680	397.78538	-824.43329	187.91080	555.30853	-901.54442	187.12431	545.46547	-869.84306	179.74651	624.68498	-1050.32104	180.57413	350.10330	-1067.31651	179.45826	427.85591	-985.68359	177.07607	379.99813	-977.41409	1190.41527	410.31303	-793.46992	1175.82558	503.12340 
2	6.133	-583.63052	1091.57074	-131.51163	-564.89334	1071.35590	-316.09497	-342.33959	1057.60048	-221.64352	-490.45235	1432.91992	-154.78395	-407.00859	1481.95679	-233.71367	-535.71396	1633.73291	-87.63666	-500.91660	1575.22980	-254.02748	-627.34570	1424.83170	-264.78142	-671.04713	1131.71349	-245.18690	-713.54782	1126.56303	-288.84678	-663.40965	1098.79021	-330.13889	-608.79173	995.95482	-69.44955	-643.93486	1017.63275	-55.23700	-630.96844	1059.29680	-49.76284	-285.77047	1390.58029	-91.88629	-264.55406	1074.06860	-36.47496	-287.83329	1057.52884	-89.79312	-328.88397	1116.29303	-31.55452	-521.63921	968.09853	-1.59365	-519.21589	1013.62213	23.43874	-533.80318	1032.38724	-23.35686	-642.19231	916.41739	-274.35585	-317.74645	904.07410	-108.30867	-649.02199	411.76937	-275.84091	-625.58285	458.18539	-349.51004	-555.10799	419.94320	-261.90182	-352.63592	474.95556	-98.95696	-287.46754	497.36389	-191.69428	-408.83106	467.93667	-178.30750	-634.42791	141.95048	-327.86285	-563.32176	135.99172	-339.01829	-603.82008	138.30841	-392.91023	-279.07803	131.59772	-166.22446	-263.37515	133.62556	-234.94123	-335.69195	126.05656	-203.60691	-381.91895	1565.48370	-150.61003	-433.49335	1078.43513	-69.37849	-895.40321	1170.07362	645.82947	-1050.14984	1189.18701	558.14476	-859.13185	1603.07236	510.27630	-937.45895	1654.36523	592.84451	-825.68871	1791.78574	384.08047	-840.34790	1798.66318	563.54439	-970.86586	1793.42865	482.32082	-750.09094	1552.33612	627.79854	-731.23398	1182.72179	579.33231	-669.78943	1193.36449	605.32593	-721.72737	1174.52049	662.88635	-655.36621	908.75107	519.45122	-642.76184	924.90669	483.03909	-683.17230	935.21637	458.52997	-1101.35796	1567.44415	476.63166	-1127.12280	1196.93367	400.40119	-1104.23500	1172.11815	469.85199	-1063.16750	1205.62874	402.45228	-1049.57909	957.61169	346.04115	-1028.91678	980.75523	312.59113	-988.53027	984.53705	336.48342	-785.92972	1029.20868	620.90233	-1087.05040	1032.09480	433.61153	-801.15326	558.47290	502.20684	-800.94978	556.25229	614.15997	-908.86627	547.69958	549.06109	-967.70393	486.53481	283.14232	-1049.80766	529.13078	347.23351	-959.92165	505.02045	397.55859	-824.58084	188.22506	556.24306	-901.66267	187.29757	546.18084	-870.17693	179.44500	625.42534	-1049.59892	182.07966	353.30036	-1066.39000	181.51852	431.22669	-984.92523	178.87421	383.05626	-976.84837	1191.28593	411.69048	-792.19398	1175.92094	503.04680 
3	6.150	-584.09698	1091.60789	-131.23230	-566.76952	1070.97252	-317.22258	-343.20713	1057.30453	-221.31655	-490.29541	1432.71088	-154.73496	-407.34493	1481.90842	-233.98745	-535.28957	1632.99896	-86.30004	-501.75488	1575.30106	-253.11182	-627.78614	1424.87671	-265.16640	-670.97900	1130.95055	-247.09585	-712.53357	1126.37871	-291.33131	-661.52908	1099.19456	-332.08012	-613.20297	989.19785	-73.06832	-647.25349	1012.27501	-58.32535	-631.98189	1053.15849	-52.16564	-285.12287	1390.08301	-93.02647	-264.26674	1073.88283	-38.09747	-287.08824	1057.33780	-91.60216	-328.55999	1115.44441	-32.97869	-517.94613	962.79930	-1.24776	-521.85272	1004.83459	15.20350	-531.71177	1026.37665	-23.47016	-643.16002	916.38268	-273.53785	-318.62593	904.06967	-107.57965	-650.43388	411.60110	-273.84157	-627.11929	458.14964	-347.44053	-556.89537	419.62025	-259.71571	-352.78954	474.37031	-96.84723	-288.47664	497.32677	-189.75178	-409.79271	467.82913	-176.10048	-634.87022	141.84937	-327.27879	-564.29245	135.98576	-338.12183	-604.21913	138.64296	-392.38762	-279.45179	131.56173	-165.42696	-263.70110	133.98375	-234.41383	-335.98179	126.07706	-203.13457	-382.06207	1565.44418	-150.75254	-434.03126	1078.45428	-69.15005	-893.75755	1170.35072	646.03912	-1049.21463	1190.49133	559.14051	-858.30826	1603.80310	512.07741	-936.18637	1654.56802	595.03834	-825.23674	1792.74521	386.46248	-839.64462	1799.21982	565.76138	-970.24002	1793.97614	484.90562	-748.28743	1553.12408	628.66489	-729.61166	1183.19534	580.89096	-668.46672	1193.94974	607.57473	-721.52267	1175.62904	664.50371	-654.11324	907.91046	526.58108	-640.57343	923.44101	489.47834	-680.69069	932.98912	464.21307	-1100.36461	1567.97501	479.15043	-1127.54089	1197.60651	402.61524	-1104.73984	1172.66312	472.07142	-1063.49892	1206.27151	404.61639	-1049.65866	958.35670	347.56134	-1029.23836	981.78246	314.08175	-988.76465	985.47745	337.95380	-785.31174	1029.16267	620.97408	-1087.16812	1033.04977	434.61662	-802.00836	558.28125	504.56413	-801.52687	556.48701	616.51814	-909.66728	547.72274	551.34174	-966.95572	487.39273	283.93648	-1048.92143	530.24002	347.74883	-958.94875	506.29044	398.00716	-824.72305	188.38942	557.36908	-901.74606	187.43816	546.99276	-870.53894	179.23927	626.30524	-1048.92975	183.36020	356.95602	-1065.76202	183.41986	434.97467	-984.23424	180.46961	386.50177	-976.41808	1191.88377	412.64389	-790.99228	1175.98846	502.71984 
4	6.167	-584.61418	1091.79672	-130.66075	-567.24297	1070.98473	-315.54586	-344.09615	1057.08839	-221.14029	-490.25253	1432.83356	-154.46877	-407.57423	1481.99615	-234.17538	-534.74770	1632.77130	-85.32806	-502.60384	1575.48660	-252.66415	-628.10555	1425.23956	-265.47165	-670.40909	1129.96056	-249.12670	-711.16837	1126.33934	-294.06384	-659.34830	1099.74731	-333.91300	-619.38519	980.95695	-77.31174	-651.62933	1005.63721	-61.84505	-634.00230	1045.50636	-54.85858	-284.73206	1389.75159	-93.83165	-263.24701	1073.87161	-40.45854	-286.25534	1057.37381	-93.71622	-327.29515	1114.01344	-34.10268	-513.34480	956.05370	-0.33552	-517.01771	999.13094	18.29127	-529.12971	1019.14917	-22.46374	-644.06174	916.48033	-272.69369	-319.16950	904.21127	-107.17607	-651.92039	411.37531	-271.80475	-628.56056	458.18478	-345.30769	-558.12817	419.61189	-257.65011	-354.27052	475.05760	-94.65749	-289.51099	497.20394	-187.92248	-410.90759	467.70988	-174.05495	-635.28118	141.85831	-326.65085	-564.18560	136.47062	-337.90653	-604.66736	139.22360	-391.83540	-280.01959	131.64825	-166.16606	-263.99485	134.43021	-233.95569	-336.34598	126.19880	-202.59611	-381.32610	1565.88333	-151.70445	-434.43779	1078.47977	-68.92360	-892.26395	1170.43762	646.04736	-1047.82532	1190.24391	560.15282	-857.56882	1604.38782	513.64525	-935.00710	1654.66675	596.91200	-825.12100	1793.50052	388.31928	-839.16687	1799.50439	567.94334	-969.96040	1794.22028	487.17838	-746.64803	1553.76282	629.36016	-728.05344	1183.35434	582.56935	-667.24579	1194.16382	610.09949	-721.53336	1176.51871	666.14197	-652.52823	907.00142	533.20221	-638.51452	921.83960	496.08864	-678.37723	931.03256	470.02594	-1099.59976	1568.25867	481.54831	-1128.04276	1198.09914	404.38625	-1105.33714	1172.92625	473.69705	-1064.09348	1206.56654	406.39759	-1049.87770	959.01321	348.61774	-1029.45457	982.52861	315.20432	-989.03992	986.41068	339.25179	-784.60442	1029.04465	620.80242	-1087.43286	1033.86063	435.48416	-802.86423	557.92500	506.59603	-802.11037	556.33003	618.60023	-910.36240	547.73212	553.64941	-966.44447	487.95830	284.60424	-1048.17543	531.09386	348.73100	-958.18741	507.32868	398.78475	-824.84840	188.58910	558.18138	-901.80367	187.52256	547.80254	-870.55077	179.01394	627.07520	-1048.31482	184.31612	360.81017	-1065.05020	185.05333	438.85616	-983.59543	181.67347	390.37640	-976.19293	1192.46948	413.47404	-790.08644	1175.67993	502.17384 
